<svg aria-hidden="true" xmlns="http://www.w3.org/2000/svg" xmlns:xlink="http://www.w3.org/1999/xlink"><symbol viewBox="0 0 12 20" id="contact-address" xmlns="http://www.w3.org/2000/svg">
<path fill-rule="evenodd" clip-rule="evenodd" d="M6 1.75C3.65279 1.75 1.75 3.65279 1.75 6C1.75 8.34721 3.65279 10.25 6 10.25C8.34721 10.25 10.25 8.34721 10.25 6C10.25 3.65279 8.34721 1.75 6 1.75ZM0.25 6C0.25 2.82436 2.82436 0.25 6 0.25C9.17564 0.25 11.75 2.82436 11.75 6C11.75 8.92145 9.57127 11.334 6.75 11.7015V19C6.75 19.4142 6.41421 19.75 6 19.75C5.58579 19.75 5.25 19.4142 5.25 19V11.7015C2.42873 11.334 0.25 8.92145 0.25 6Z"/>
</symbol><symbol viewBox="0 0 20 16" id="contact-email" xmlns="http://www.w3.org/2000/svg">
<path fill-rule="evenodd" clip-rule="evenodd" d="M0.762563 0.762563C1.07843 0.446697 1.51696 0.25 2 0.25H18C18.483 0.25 18.9216 0.446695 19.2374 0.762564C19.5533 1.07843 19.75 1.51696 19.75 2V14C19.75 14.9665 18.9665 15.75 18 15.75H2C1.0335 15.75 0.25 14.9665 0.25 14V2C0.25 1.51696 0.446697 1.07843 0.762563 0.762563ZM2.81067 1.75L9.11611 8.05541L8.62114 8.55038L9.11612 8.05541C9.60427 8.54356 10.3957 8.54357 10.8839 8.05541L11.4142 8.58574L10.8839 8.05541L17.1893 1.75H2.81067ZM18.25 2.81065L11.9445 9.11607C10.8706 10.19 9.1294 10.19 8.05546 9.11607L8.58579 8.58574L8.05546 9.11607L1.75 2.81065V14C1.75 14.1381 1.86193 14.25 2 14.25H18C18.1381 14.25 18.25 14.1381 18.25 14V2.81065Z"/>
</symbol><symbol viewBox="0 0 20 20" id="contact-phone" xmlns="http://www.w3.org/2000/svg">
<path d="M12.5 4.5C13.2372 4.64382 13.9689 4.96892 14.5 5.5C15.0311 6.03108 15.3562 6.76284 15.5 7.5M13 1C14.5315 1.17014 15.9097 1.91107 17 3C18.0903 4.08893 18.8279 5.46869 19 7M18.9995 14.4767V17.1864C19.0037 18.2223 18.0723 19.0873 17.0265 18.9929C8.00006 19 1.00006 11.935 1.00713 2.96919C0.912936 1.92895 1.77364 1.00106 2.80817 1.00009H5.52331C5.96253 0.995773 6.38835 1.151 6.72138 1.43684C7.66819 2.24949 8.27719 5.00777 8.04287 6.10428C7.85994 6.96036 6.99696 7.55929 6.41026 8.14484C7.69864 10.4062 9.57471 12.2785 11.8405 13.5644C12.4272 12.9788 13.0274 12.1176 13.8851 11.935C14.9855 11.7008 17.7615 12.3106 18.5709 13.264C18.858 13.6021 19.0105 14.0337 18.9995 14.4767Z" stroke-width="1.5" stroke-linecap="round" stroke-linejoin="round"/>
</symbol><symbol viewBox="0 0 199 210" id="main-lines" xmlns="http://www.w3.org/2000/svg">
<path opacity="0.7" d="M2.80349 51.8697L262.09 -134.416M1.17715 70.609L276.828 -127.774M5.8249 84.7034L289.325 -119.463M13.8774 96.2964L303.733 -112.573M19.3259 109.805L318.307 -105.806M26.3894 122.124L334 -99.8618M33.3691 134.507L345.143 -90.5662M40.3625 146.873L359.61 -83.7165M47.6961 158.995L370.682 -74.3627M53.7216 172.078L379.289 -63.1804M61.069 184.181L389.465 -53.1659M69.0981 195.789L399.43 -42.9966M75.2673 208.751L393.901 -21.3809" stroke-width="2" stroke-miterlimit="10" stroke-linecap="round" stroke-linejoin="round" stroke-dasharray="0.3 0.3"/>
</symbol><symbol viewBox="0 0 18 18" id="service-appdev" xmlns="http://www.w3.org/2000/svg">
<path fill-rule="evenodd" clip-rule="evenodd" d="M10.0878 0.251698C9.43681 -0.0803184 8.55464 -0.0854414 7.89841 0.24572C5.60476 1.73726 3.1796 3.15909 1.10231 4.58476C0.793141 4.83439 0.573731 5.19713 0.577475 5.62411C0.581203 6.04933 0.805078 6.40722 1.11237 6.65274C3.1796 7.89854 5.60476 9.32037 7.84769 10.9529C8.49872 11.2849 9.38089 11.29 10.0371 10.9588C12.3952 9.32037 13.3653 8.84643 16.8332 6.6198C17.1424 6.37017 17.3618 6.00743 17.3581 5.58046C17.3543 5.15524 17.1305 4.79734 16.8232 4.55183C14.8204 3.15909 12.3952 1.73726 10.0878 0.251698ZM8.56611 1.50902C8.7986 1.3917 9.18051 1.39281 9.41458 1.51218C11.4252 2.68515 13.3653 4.10698 15.8238 5.59018C13.8503 6.95065 11.9102 8.37248 9.36942 9.69554C9.13693 9.81286 8.75502 9.81175 8.52095 9.69238C6.20197 8.37248 4.14966 6.95065 2.11175 5.61438C4.14966 4.10698 5.60476 3.15909 8.56611 1.50902Z"/>
<path d="M17.8895 9.10286C18.1023 9.43591 17.9985 9.87446 17.6577 10.0824L11.7332 13.6966C10.9401 14.0598 9.96418 14.5337 9 14.5338C8.03582 14.5338 7.05986 14.0598 6.20197 13.6969L0.342448 10.1236C0.00157169 9.91574 -0.102304 9.47721 0.110436 9.14413C0.323176 8.81104 0.771971 8.70954 1.11285 8.91742L6.97237 12.4907C7.50023 12.8126 8.2497 13.112 9 13.1119C9.7503 13.1119 10.4349 12.8125 10.9626 12.4905L16.8871 8.87632C17.2279 8.66838 17.6767 8.76981 17.8895 9.10286Z"/>
<path d="M17.8895 12.6619C18.1023 12.9949 17.9985 13.4334 17.6577 13.6414L12.5271 16.7722C10.9401 17.531 10.2178 17.9999 8.96764 18C7.7175 18.0001 6.0898 17.057 5.40793 16.7726L0.342374 13.6826C0.00152299 13.4747 -0.102298 13.0362 0.110482 12.7031C0.323263 12.3701 0.772071 12.2686 1.11292 12.4765L6.17848 15.5665C6.92836 16.0239 7.93142 16.4296 8.96764 16.4295C10.0039 16.4295 11.0067 16.0237 11.7564 15.5662L16.887 12.4354C17.2278 12.2275 17.6766 12.3288 17.8895 12.6619Z"/>
</symbol><symbol viewBox="0 0 19 16" id="service-uiux" xmlns="http://www.w3.org/2000/svg">
<path fill-rule="evenodd" clip-rule="evenodd" d="M1.21299 0.307112C1.49324 0.191027 1.81583 0.255193 2.03033 0.469692L5.5 3.93936L8.96967 0.469692C9.26256 0.176799 9.73744 0.176799 10.0303 0.469692L13.5 3.93936L16.9697 0.469692C17.1842 0.255193 17.5068 0.191027 17.787 0.307112C18.0673 0.423198 18.25 0.696675 18.25 1.00002V12C18.25 12.4142 17.9142 12.75 17.5 12.75H1.5C1.08579 12.75 0.75 12.4142 0.75 12V1.00002C0.75 0.696675 0.932732 0.423198 1.21299 0.307112ZM2.25 2.81068V11.25H16.75V2.81068L14.0303 5.53035C13.7374 5.82325 13.2626 5.82325 12.9697 5.53035L9.5 2.06068L6.03033 5.53035C5.73744 5.82325 5.26256 5.82325 4.96967 5.53035L2.25 2.81068ZM0.75 15C0.75 14.5858 1.08579 14.25 1.5 14.25H17.5C17.9142 14.25 18.25 14.5858 18.25 15C18.25 15.4142 17.9142 15.75 17.5 15.75H1.5C1.08579 15.75 0.75 15.4142 0.75 15Z"/>
</symbol><symbol viewBox="0 0 21 20" id="service-webdev" xmlns="http://www.w3.org/2000/svg">
<path fill-rule="evenodd" clip-rule="evenodd" d="M2.28363 9.25H5.76998C5.9204 6.44512 6.89621 4.30361 7.87596 2.83397C8.08142 2.52579 8.28707 2.24706 8.4854 1.99774C5.1374 2.83794 2.60136 5.72414 2.28363 9.25ZM10.5 1.99961C10.4696 2.02906 10.438 2.06014 10.4053 2.09283C10.0593 2.43885 9.59234 2.96357 9.12404 3.66603C8.27404 4.94103 7.42017 6.79961 7.27243 9.25H13.7276C13.5798 6.79961 12.726 4.94103 11.876 3.66603C11.4077 2.96357 10.9407 2.43885 10.5947 2.09283C10.562 2.06014 10.5304 2.02906 10.5 1.99961ZM13.7276 10.75H7.27243C7.42017 13.2004 8.27404 15.059 9.12404 16.334C9.59234 17.0364 10.0593 17.5611 10.4053 17.9072C10.438 17.9399 10.4696 17.9709 10.5 18.0004C10.5304 17.9709 10.562 17.9399 10.5947 17.9072C10.9407 17.5611 11.4077 17.0364 11.876 16.334C12.726 15.059 13.5798 13.2004 13.7276 10.75ZM8.48541 18.0023C8.28708 17.7529 8.08142 17.4742 7.87596 17.166C6.89621 15.6964 5.9204 13.5549 5.76998 10.75H2.28363C2.60136 14.2759 5.1374 17.1621 8.48541 18.0023ZM12.5146 18.0023C12.7129 17.7529 12.9186 17.4742 13.124 17.166C14.1038 15.6964 15.0796 13.5549 15.23 10.75H18.7164C18.3986 14.2759 15.8626 17.1621 12.5146 18.0023ZM18.7164 9.25H15.23C15.0796 6.44512 14.1038 4.30361 13.124 2.83397C12.9186 2.52579 12.7129 2.24706 12.5146 1.99774C15.8626 2.83794 18.3986 5.72414 18.7164 9.25ZM0.75 10C0.75 4.61522 5.11522 0.25 10.5 0.25C15.8848 0.25 20.25 4.61522 20.25 10C20.25 15.3848 15.8848 19.75 10.5 19.75C5.11522 19.75 0.75 15.3848 0.75 10Z"/>
</symbol></svg>